<?xml version="1.0" encoding="utf-8"?>
<!-- Generator: Adobe Illustrator 23.0.3, SVG Export Plug-In . SVG Version: 6.00 Build 0)  -->
<svg version="1.1" id="レイヤー_1" xmlns="http://www.w3.org/2000/svg" xmlns:xlink="http://www.w3.org/1999/xlink" x="0px"
	 y="0px" viewBox="0 0 412.6 69.9" style="enable-background:new 0 0 412.6 69.9;" xml:space="preserve">
<style type="text/css">
	.st0{fill:#D32B1A;}
</style>
<g>
	<path class="st0" d="M200.8,23.7v5.1h24.9v6.3c0,0,0.2,8.5-8.5,8.5h-16.5v5.1H217h18.9V34.8V23.7H200.8z"/>
	<path class="st0" d="M197.2,23.7h-35.1v5.1h25v4.8h-25v5.1h24.3c-0.9,2.3-3,4.8-7.7,4.8h-16.5v5.1h16.2h18.9L197.2,23.7L197.2,23.7
		z"/>
	<path class="st0" d="M273.8,23.7L273.8,23.7h-34.6v15.2h7.7V28.8h16.7v4.8H249v5.1h13.8c-0.9,2.3-3,4.8-7.7,4.8h-15.5v5.1h15.3
		c19.8,0,18.9-13.8,18.9-13.8L273.8,23.7z"/>
	<path class="st0" d="M88.3,36.5c-0.5,1.1-0.8,1.7-1.1,2.2l-1.7-1c0.2-0.3,0.3-0.4,0.5-0.7h-2.1v1.4c0.5,1,1.4,2,2.4,2.9l-1.1,1.6
		c-0.5-0.6-0.9-1.2-1.2-1.9h0v7.4h-1.6v-8h0c-0.4,1.3-0.9,2.8-2,4.4l-0.8-2.2c1.2-1.6,2-3.6,2.6-5.5h-2.3v-1.7h2.5v-3.1h1.6v3.1h2.1
		V37h0c0.5-0.8,0.9-1.7,1.6-4.3l1.8,0.3c-0.1,0.5-0.2,1-0.5,1.8h1.3v-2.6h1.7v2.6h3.7v1.7h-3.7v2.4h4v1.7h-3.4
		c1.2,2.2,2.1,3.3,3.7,4.5l-0.9,1.9C94.7,46.5,93,45,92,42.6h0v5.8h-1.7v-5.7h0c-1,1.7-2.1,3-3.9,4.3l-1.1-1.6
		c1.6-1.1,3.3-2.5,4.6-4.7h-3.8v-1.7h4.3v-2.4H88.3z"/>
	<path class="st0" d="M113,34.9h1.9v1.7h-5.2c0.1,3,0.8,6.1,1.4,7.5c0.2,0.5,1,2,1.6,2c0.6,0,0.9-2,1-2.6l1.6,0.9
		c-0.2,1.3-0.7,3.9-2.3,3.9c-1.7,0-2.8-2-3.2-2.8c-1.5-2.9-1.6-6.1-1.7-9h-9.2v-1.7h9.1c0-0.9-0.1-2.5-0.1-2.8h1.8
		c0,0.9,0,1.5,0,2.8h3.1v0c-1-0.7-1.7-1.1-2.6-1.5l1-1.4c1.4,0.7,1.4,0.7,2.8,1.6L113,34.9z M98.8,46c0.4,0,0.6-0.1,0.9-0.1
		c0.4-0.1,2.4-0.3,2.8-0.4v-5h-3.4v-1.7h8.4v1.7h-3.2v4.8c2-0.3,3-0.5,3.7-0.6v1.6c-2.8,0.6-6.8,1.2-8.9,1.5L98.8,46z"/>
	<path class="st0" d="M131.7,48.6c-0.2-0.4-0.3-0.5-0.7-1.2c-9.1,0.6-9.7,0.7-12.3,0.7l-0.3-1.8c0.4,0,1.7,0,2.5,0
		c0.5-1,1.2-2.5,1.7-4h-4.5v-1.7h15.6v1.7h-9c-0.8,1.9-1.3,3-1.9,4c3.6-0.1,4.4-0.1,7.1-0.3c-1.1-1.5-1.5-2-2-2.5l1.5-0.9
		c0.7,0.7,2.6,2.6,4,5L131.7,48.6z M121.4,37.6c-1.3,0.8-2.1,1.2-2.9,1.5l-1-1.7c2.8-1,6-3.1,7.5-5.3h2c1.3,2,4.1,4,7.5,5.3
		l-1.1,1.7c-0.7-0.4-1.7-0.9-2.8-1.5v1h-9.2V37.6z M129.6,36.9L129.6,36.9c-1.3-0.9-2.5-2.1-3.6-3.3c-0.7,0.8-1.6,1.9-3.6,3.3v0
		H129.6z"/>
	<path class="st0" d="M141.2,48.5h-1.8v-6.7c-1,0.9-1.7,1.4-2.1,1.6l-0.8-1.8c2.2-1.3,3.9-3.2,4.7-5.1h-4.5v-1.7h2.6v-2.7h1.8v2.7h2
		v1.7c0,0.4-1.4,2.4-1.7,2.9c0.9,1,1.3,1.3,2.4,2.1l-0.8,1.6c-0.8-0.7-1.3-1.1-1.9-1.8V48.5z M147.2,32.2h1.8v4.9h3.7v1.9H149V46
		h4.1v1.9h-10.3V46h4.4v-7.1h-3.6v-1.9h3.6V32.2z"/>
	<polygon class="st0" points="293.9,34.4 293.9,36.3 288.6,36.3 288.6,44.7 294.9,44.7 294.9,46.6 280.3,46.6 280.3,44.7 
		286.6,44.7 286.6,36.3 281.2,36.3 281.2,34.4 	"/>
	<path class="st0" d="M302.3,38.1c-1.3-1-3.4-2-5.2-2.5l0.9-1.7c1.5,0.4,3,0.9,5.4,2.4L302.3,38.1z M297.3,45.3
		c6-0.4,10.1-2.5,12.6-10.3l2,0.9c-2.6,7.6-6.4,10.7-14,11.6L297.3,45.3z"/>
	<path class="st0" d="M319,38.9c0.7,0.3,2.2,0.9,4,2.5c1.5-2,1.9-3.8,2.1-4.5H319c-1.7,2.4-3.2,3.4-4.6,4.2l-1.3-1.5
		c3-1.6,4.6-3.7,5.8-6.8l2.1,0.4c-0.3,0.7-0.5,1.2-0.9,1.8h7.4c-0.5,2.7-1.9,10.7-12.2,13l-1.1-1.7c1.2-0.2,4.1-0.7,7.4-3.5
		c-1.7-1.5-3.3-2.3-4-2.6L319,38.9z"/>
	<rect x="329" y="39.2" class="st0" width="15.4" height="2.1"/>
	<path class="st0" d="M348.1,45.7c6-1,9-3.2,9.8-9.7h-11.2v-1.9h11.6c0-0.1,0-0.3,0-0.4c0-1,0.8-1.8,1.8-1.8c1,0,1.8,0.8,1.8,1.8
		c0,0.8-0.6,1.8-1.8,1.8c-0.7,5.8-2.6,10.3-11,12.1L348.1,45.7z M360,32.9c-0.5,0-0.8,0.4-0.8,0.8c0,0.5,0.4,0.8,0.8,0.8
		c0.5,0,0.8-0.4,0.8-0.8C360.8,33.3,360.5,32.9,360,32.9"/>
	<path class="st0" d="M375.9,35.3H364v-1.8h11.9V35.3z M376.8,37.6c-0.4,3.7-1.1,9.2-11.3,10.2L365,46c3.1-0.1,5.2-0.9,6.7-1.9
		c2.2-1.4,2.7-3.8,2.9-4.7h-11.7v-1.9H376.8z"/>
	<path class="st0" d="M388.2,47.9h-2.1V40c-2.8,1.8-5,2.6-6.4,3l-1-1.7c2.4-0.8,7.5-2.5,12.5-8.5l1.9,1.1c-2.7,2.8-4.1,4-4.9,4.6
		V47.9z"/>
	<path class="st0" d="M408.1,32.3c0.4,1.2,0.6,2,0.7,2.7l-1.3,0.2c-0.4,1.4-1.1,3.3-3,5.9c1.3,1,4.4,3.7,5.9,5.2l-1.7,1.6
		c-1.6-1.9-3.5-3.6-5.4-5.3c-1.9,2.2-4.2,4.1-6.9,5.3l-1.2-1.7c3.1-1.2,7.5-4.2,9.9-10.4h-9v-1.9h10.7c-0.2-0.6-0.3-0.9-0.4-1.4
		L408.1,32.3z M409.7,35c-0.1-0.6-0.2-1.4-0.7-2.7l1.5-0.2c0.4,1.2,0.6,2,0.7,2.7L409.7,35z"/>
</g>
<g>
	<path class="st0" d="M47.9,23.7l19.4-11.2l-1.7-2.9L43,22.6l-7.6,0l0-0.1l0,0.1h-0.1l3.8-6.6l22.6-13L60,0L40.8,11.1l-13.3,0L8.2,0
		L6.5,2.9l22.4,13l3.9,6.6l0,0.1l-7.7,0L2.7,9.6L1,12.5l19.3,11.1L26.9,35l0,22.2l3.4,0l0-25.9l3.8-6.7l3.9,6.7l0,25.9l3.4,0l0-22.2
		L47.9,23.7z M36.6,24.7L36.6,24.7L36.6,24.7L36.6,24.7z"/>
	<polygon class="st0" points="14,61.4 16.9,61.4 13.4,66.7 13.4,69.7 10.7,69.7 10.7,66.8 7,61.4 10,61.4 12.1,64.5 	"/>
	<polygon class="st0" points="31.3,65.3 35.1,69.7 31.6,69.7 28.3,65.5 28.3,66.9 28.3,69.7 25.6,69.7 25.6,61.4 28.3,61.4 
		28.3,65.1 31.4,61.4 34.5,61.4 	"/>
	<path class="st0" d="M40.2,66.8c-0.1,0.3-0.3,0.6-0.5,0.8c-0.2,0.2-0.4,0.4-0.7,0.5c-0.3,0.1-0.5,0.2-0.8,0.2c-0.3,0-0.5,0-0.8-0.1
		c-0.3-0.1-0.5-0.3-0.7-0.5c-0.2-0.2-0.3-0.5-0.5-0.8c-0.1-0.3-0.2-0.8-0.2-1.3c0-0.5,0.1-0.9,0.2-1.3c0.1-0.4,0.3-0.6,0.5-0.9
		c0.2-0.2,0.4-0.4,0.7-0.5c0.2-0.1,0.5-0.1,0.8-0.1c0.3,0,0.5,0,0.8,0.1c0.2,0.1,0.5,0.3,0.7,0.5c0.2,0.2,0.3,0.5,0.5,0.9
		c0.1,0.3,0.2,0.8,0.2,1.3C40.3,66.1,40.3,66.5,40.2,66.8 M41.8,62.4c-0.9-0.8-2.1-1.2-3.6-1.2c-1.5,0-2.7,0.4-3.6,1.2
		c-0.9,0.8-1.3,1.8-1.3,3.2c0,1.3,0.4,2.4,1.3,3.2c0.9,0.8,2,1.2,3.6,1.2c1.5,0,2.7-0.4,3.6-1.2c0.9-0.8,1.3-1.8,1.3-3.2
		C43.1,64.2,42.7,63.2,41.8,62.4"/>
	<path class="st0" d="M22.2,66.8c-0.1,0.3-0.3,0.6-0.5,0.8c-0.2,0.2-0.4,0.4-0.7,0.5c-0.3,0.1-0.5,0.2-0.8,0.2c-0.3,0-0.5,0-0.8-0.1
		c-0.2-0.1-0.5-0.3-0.7-0.5c-0.2-0.2-0.3-0.5-0.5-0.8c-0.1-0.3-0.2-0.8-0.2-1.3c0-0.5,0.1-0.9,0.2-1.3c0.1-0.4,0.3-0.6,0.5-0.9
		c0.2-0.2,0.4-0.4,0.7-0.5c0.2-0.1,0.5-0.1,0.8-0.1c0.3,0,0.5,0,0.8,0.1c0.2,0.1,0.5,0.3,0.7,0.5c0.2,0.2,0.3,0.5,0.5,0.9
		c0.1,0.3,0.2,0.8,0.2,1.3C22.4,66.1,22.3,66.5,22.2,66.8 M23.9,62.4c-0.9-0.8-2.1-1.2-3.6-1.2c-1.5,0-2.7,0.4-3.6,1.2
		c-0.9,0.8-1.3,1.8-1.3,3.2c0,1.3,0.4,2.4,1.3,3.2c0.9,0.8,2,1.2,3.6,1.2c1.5,0,2.7-0.4,3.6-1.2c0.9-0.8,1.3-1.8,1.3-3.2
		C25.2,64.2,24.7,63.2,23.9,62.4"/>
	<polygon class="st0" points="48.7,69.7 46,69.7 46,63 42.8,63 42.8,61.4 51.9,61.4 51.9,63 48.7,63 	"/>
	<path class="st0" d="M55.6,63.6l1.4,2.9h-2.9L55.6,63.6z M53.3,68h4.5l0.9,1.7h2.9l-4.3-8.4H54l-4.4,8.4h2.8L53.3,68z"/>
</g>
</svg>
